<svg viewBox="0 0 921.7 161.21" xmlns="http://www.w3.org/2000/svg" xmlns:xlink="http://www.w3.org/1999/xlink" id="Layer_1" overflow="hidden"><defs><clipPath id="clippath"><path d="M19.1 0C15.6 0 12.17 1.78 9.69 4.91 7.21 8.01 5.8 12.35 5.8 16.77L5.8 144.47C5.8 148.9 7.22 153.23 9.69 156.34 11.87 159.07 14.76 160.79 17.8 161.16L234.98 161.16C240.2 161.16 244.63 157.05 244.71 151.82L244.71 151.54C244.71 150.25 244.41 148.99 243.95 147.79L240.8 139.69 237.88 132.18 237.86 132.18 190.79 11.63 189.18 7.49C188.05 4.59 185.9 2.12 183.04 0.89 181.67 0.3 180.22-0.01 178.77-0.01L19.1-0.01Z" fill="none"/></clipPath><linearGradient x1="-90.22" y1="69.52" x2="-86.34" y2="69.52" gradientUnits="userSpaceOnUse" id="linear-gradient" gradientTransform="matrix(64.31 0 0 64.31 5802.09 -4389.99)"><stop offset="0" stop-color="#2B70B8"/><stop offset="0.09" stop-color="#143156"/><stop offset="0.1" stop-color="#143156"/><stop offset="0.17" stop-color="#143156"/><stop offset="0.18" stop-color="#15345B"/><stop offset="0.25" stop-color="#1C4678"/><stop offset="0.33" stop-color="#21568F"/><stop offset="0.43" stop-color="#2561A1"/><stop offset="0.54" stop-color="#2869AE"/><stop offset="0.68" stop-color="#2A6EB5"/><stop offset="1" stop-color="#2B70B8"/></linearGradient><clipPath id="clippath-1"><rect x="5.79" y="0" width="238.91" height="151.57" fill="none"/></clipPath><clipPath id="clippath-2"><path d="M240.8 139.7 237.86 132.19 189.17 7.49C188.04 4.59 185.9 2.13 183.04 0.9 181.67 0.31 180.23 3.33067e-16 178.77 3.33067e-16L19.1 3.33067e-16C15.59 0 12.16 1.79 9.68 4.91 7.22 8.02 5.79 12.35 5.79 16.78L5.79 29.55C68.97 103.35 244.7 151.57 244.7 151.57 244.7 150.85 244.66 150.16 244.6 149.46L240.8 139.7Z" fill="none"/></clipPath><linearGradient x1="-90.22" y1="69.47" x2="-86.43" y2="69.47" gradientUnits="userSpaceOnUse" id="linear-gradient-2" gradientTransform="matrix(64.31 0 0 64.31 5802.17 -4391.71)"><stop offset="0" stop-color="#2B70B8"/><stop offset="0.09" stop-color="#143156"/><stop offset="0.1" stop-color="#143156"/><stop offset="0.17" stop-color="#143156"/><stop offset="0.23" stop-color="#2D4F76"/><stop offset="0.3" stop-color="#436993"/><stop offset="0.37" stop-color="#567EAA"/><stop offset="0.46" stop-color="#648FBC"/><stop offset="0.56" stop-color="#6E9BC9"/><stop offset="0.7" stop-color="#74A2D0"/><stop offset="1" stop-color="#76A4D3"/></linearGradient></defs><rect x="72.12" y="1.25" rx="4.35" ry="4.35" width="846.95" height="157.81" fill="#FFFFFF"/><g><path d="M905.26 0.05 38.1 0.05C29.04 0.05 21.67 7.42 21.67 16.48L21.67 144.78C21.67 153.84 29.04 161.21 38.1 161.21L905.26 161.21C914.32 161.21 921.69 153.84 921.69 144.78L921.69 16.48C921.69 7.42 914.32 0.05 905.26 0.05M917.56 144.78C917.56 151.56 912.04 157.08 905.26 157.08L38.1 157.08C31.32 157.08 25.8 151.56 25.8 144.78L25.8 16.48C25.8 9.7 31.32 4.18 38.1 4.18L905.26 4.18C912.04 4.18 917.56 9.7 917.56 16.48L917.56 144.78Z" fill="#ACADAE"/><g clip-path="url(#clippath)"><path d="M5.79 161.16 250.5 161.16 244.71 0 0 0 5.79 161.16Z" fill="url(#linear-gradient)"/></g><g opacity="0.2"><g clip-path="url(#clippath-1)"><g clip-path="url(#clippath-2)"><path d="M5.79 151.57 244.7 151.57 244.7 0 0 0 5.79 151.57Z" fill="url(#linear-gradient-2)"/></g></g></g><g><path d="M275.1 56.62C275.1 62.72 271.34 67.5 264.52 67.69L264.52 69.95 260.15 69.95 260.15 67.69C253.22 67.2 249.68 62.8 249.68 56.62 249.68 50.44 253.22 45.56 260.15 45.25L260.15 43.74 264.52 43.74 264.52 45.25C271.97 45.74 275.1 50.22 275.1 56.62ZM260.16 48.9C255.83 49.32 254.1 52.51 254.1 56.58 254.1 60.65 255.98 63.62 260.16 64.03L260.16 48.9ZM264.53 64.03C269.16 63.84 270.7 60.64 270.7 56.58 270.7 52.74 269.19 49.09 264.53 48.9L264.53 64.03Z" fill="#133156"/><path d="M290.09 43.56C296.11 43.56 299.88 47.78 299.88 53.5L299.88 60.2C299.88 66.34 296 70.18 290.09 70.18 283.54 70.18 280.34 65.51 280.34 60.2L280.34 53.5C280.34 48.23 283.54 43.56 290.09 43.56ZM290.09 47.85C286.63 47.85 284.93 50.52 284.93 53.27L284.93 60.31C284.93 63.17 286.63 65.92 290.09 65.92 293.29 65.92 295.25 63.47 295.25 60.31L295.25 53.27C295.25 50.3 293.29 47.85 290.09 47.85Z" fill="#133156"/><path d="M325.29 51.95C325.29 56.13 321.83 59.89 316.71 59.89L310.72 59.89 310.72 69.94 306.17 69.94 306.17 43.74 316.37 43.74C321.3 43.74 325.29 46.53 325.29 51.95ZM320.62 51.84C320.62 49.13 318.85 47.89 316.25 47.89L310.72 47.89 310.72 55.76 316.41 55.76C319.08 55.76 320.63 53.95 320.63 51.85Z" fill="#133156"/><path d="M349.58 69.94 349.58 54.39 349.47 54.39 348.08 57.74 346.16 61.96 344.13 66.25 340.48 66.25 338.97 63.05 336.49 57.55 335.13 54.35 335.02 54.46 335.02 69.93 330.47 69.93 330.47 43.73 334.72 43.73 338.15 51.22C339.62 54.38 340.9 57.47 342.25 60.63L342.4 60.63 344.51 55.62 346.43 51.22 349.78 43.73 354.15 43.73 354.15 69.93 349.59 69.93Z" fill="#133156"/><path d="M362.66 66.56 364.43 66.56C365.63 66.56 366.35 66.14 366.95 64.83L367.21 64.15 359.27 43.75 364.24 43.75 367.06 52.03 369.47 58.81 369.66 58.81 371.85 52.11 374.64 43.75 379.46 43.75 371.86 64.15C370.05 69.01 368.4 70.47 365.12 70.47L362.67 70.47 362.67 66.56Z" fill="#133156"/><path d="M398.18 47.81 390.27 47.81 390.27 55.11C390.27 65.2 388.65 69.83 381.84 70.43 381.58 69.19 381.31 67.94 381.01 66.7 384.77 65.68 385.98 63.58 385.98 57.25L385.98 43.73 402.69 43.73 402.69 69.93 398.17 69.93 398.17 47.8Z" fill="#133156"/><path d="M409.92 69.94 409.92 43.74 414.44 43.74 414.44 62.26C414.44 62.26 414.52 62.3 414.55 62.3L420.65 52.93 426.75 43.74 430.55 43.74 430.55 69.94 425.99 69.94 425.99 52.17 425.88 52.17 420.69 60.19C418.47 63.46 416.36 66.67 414.1 69.94L409.92 69.94Z" fill="#133156"/><path d="M468.34 51.95C468.34 56.13 464.88 59.89 459.76 59.89L453.78 59.89 453.78 69.94 449.22 69.94 449.22 43.74 459.42 43.74C464.35 43.74 468.34 46.53 468.34 51.95ZM463.67 51.84C463.67 49.13 461.9 47.89 459.3 47.89L453.77 47.89 453.77 55.76 459.45 55.76C462.12 55.76 463.67 53.95 463.67 51.85Z" fill="#133156"/><path d="M482.72 43.56C488.74 43.56 492.51 47.78 492.51 53.5L492.51 60.2C492.51 66.34 488.63 70.18 482.72 70.18 476.17 70.18 472.97 65.51 472.97 60.2L472.97 53.5C472.97 48.23 476.17 43.56 482.72 43.56ZM482.72 47.85C479.26 47.85 477.56 50.52 477.56 53.27L477.56 60.31C477.56 63.17 479.25 65.92 482.72 65.92 485.92 65.92 487.88 63.47 487.88 60.31L487.88 53.27C487.88 50.3 485.92 47.85 482.72 47.85Z" fill="#133156"/><path d="M506.78 70.13C502.07 70.13 498.42 67.98 497.03 64.26L501.25 62.38C501.93 64.34 504.34 65.96 506.82 65.96 509.72 65.96 511.86 64.49 511.86 61.97 511.86 59.45 510.24 58.13 507.57 58.13L504.52 58.13 504.52 54.25 507.64 54.25C510.01 54.25 511.63 52.89 511.63 50.94 511.63 48.87 509.75 47.82 507.38 47.82 504.82 47.82 502.79 49.18 501.85 51.13L497.86 49.13C499.36 45.71 502.6 43.52 507.38 43.52 512.84 43.52 516.22 46.08 516.22 50.44 516.22 52.25 515.32 54.81 512.42 56.01 512.42 56.12 512.46 56.09 512.46 56.2 515.77 57.22 516.53 60.27 516.53 62.19 516.53 67.16 512.24 70.13 506.78 70.13Z" fill="#133156"/><path d="M541.67 51.95C541.67 56.13 538.21 59.89 533.09 59.89L527.11 59.89 527.11 69.94 522.55 69.94 522.55 43.74 532.75 43.74C537.68 43.74 541.67 46.53 541.67 51.95ZM537 51.84C537 49.13 535.23 47.89 532.63 47.89L527.1 47.89 527.1 55.76 532.78 55.76C535.45 55.76 537 53.95 537 51.85Z" fill="#133156"/><path d="M556.05 43.56C562.07 43.56 565.84 47.78 565.84 53.5L565.84 60.2C565.84 66.34 561.96 70.18 556.05 70.18 549.5 70.18 546.3 65.51 546.3 60.2L546.3 53.5C546.3 48.23 549.5 43.56 556.05 43.56ZM556.05 47.85C552.59 47.85 550.89 50.52 550.89 53.27L550.89 60.31C550.89 63.17 552.58 65.92 556.05 65.92 559.25 65.92 561.21 63.47 561.21 60.31L561.21 53.27C561.21 50.3 559.25 47.85 556.05 47.85Z" fill="#133156"/><path d="M571.97 69.94 571.97 43.74 588.57 43.74 588.57 47.88 576.52 47.88 576.52 54.43 582.39 54.43C588.11 54.43 591.23 57.86 591.23 61.96 591.23 67.23 587.35 69.94 582.35 69.94L571.96 69.94ZM586.57 62.15C586.57 60.31 585.29 58.58 582.28 58.58L576.52 58.58 576.52 65.84 582.28 65.84C584.99 65.84 586.57 64.41 586.57 62.15Z" fill="#133156"/><path d="M612.19 47.81 604.29 47.81 604.29 55.11C604.29 65.2 602.67 69.83 595.86 70.43 595.59 69.19 595.33 67.94 595.03 66.7 598.79 65.68 600 63.58 600 57.25L600 43.73 616.71 43.73 616.71 69.93 612.19 69.93 612.19 47.8Z" fill="#133156"/><path d="M623.93 69.94 623.93 43.74 641.47 43.74 641.47 47.88 628.49 47.88 628.49 54.73 639.56 54.73 639.56 58.72 628.49 58.72 628.49 65.8 641.47 65.8 641.47 69.94 623.93 69.94Z" fill="#133156"/><path d="M661.75 69.94 661.75 58.72 651.66 58.72 651.66 69.94 647.1 69.94 647.1 43.74 651.66 43.74 651.66 54.73 661.75 54.73 661.75 43.74 666.27 43.74 666.27 69.94 661.75 69.94Z" fill="#133156"/><path d="M673.37 69.94 673.37 43.74 677.96 43.74 677.96 69.94 673.37 69.94Z" fill="#133156"/><path d="M281.2 113.57C276.49 113.57 272.84 111.42 271.45 107.7L275.67 105.82C276.35 107.78 278.76 109.4 281.24 109.4 284.14 109.4 286.28 107.93 286.28 105.41 286.28 102.89 284.66 101.57 281.99 101.57L278.94 101.57 278.94 97.69 282.06 97.69C284.43 97.69 286.05 96.33 286.05 94.38 286.05 92.31 284.17 91.26 281.8 91.26 279.24 91.26 277.21 92.62 276.27 94.57L272.28 92.57C273.79 89.15 277.02 86.96 281.8 86.96 287.26 86.96 290.65 89.52 290.65 93.88 290.65 95.69 289.75 98.25 286.85 99.45 286.85 99.56 286.89 99.53 286.89 99.64 290.2 100.66 290.96 103.71 290.96 105.63 290.96 110.6 286.67 113.57 281.21 113.57Z" fill="#133156"/><path d="M306.53 109.73C307.32 109.58 308.11 109.39 308.98 109.2 311.35 107.43 311.69 105.06 311.99 98.17L312.44 87.18 329.72 87.18C329.72 94.6 329.76 101.94 329.76 109.35L332.28 109.35 332.28 119.21 328.25 119.21 328.25 113.38 310.6 113.38 310.6 119.21 306.53 119.21 306.53 109.73ZM316.43 91.25C316.32 93.66 316.24 95.88 316.13 98.29 315.94 102.88 315.79 107.02 314.17 109.36L325.2 109.36 325.2 91.25 316.43 91.25Z" fill="#133156"/><path d="M337.78 113.38 337.78 87.18 355.32 87.18 355.32 91.32 342.33 91.32 342.33 98.17 353.4 98.17 353.4 102.16 342.33 102.16 342.33 109.24 355.32 109.24 355.32 113.38 337.78 113.38Z" fill="#133156"/><path d="M380.08 95.38C380.08 99.56 376.62 103.32 371.5 103.32L365.51 103.32 365.51 113.37 360.95 113.37 360.95 87.17 371.15 87.17C376.08 87.17 380.07 89.96 380.07 95.38ZM375.41 95.27C375.41 92.56 373.64 91.32 371.04 91.32L365.51 91.32 365.51 99.19 371.19 99.19C373.86 99.19 375.41 97.38 375.41 95.28Z" fill="#133156"/><path d="M404.36 113.38 404.36 97.83 404.25 97.83 402.86 101.18 400.94 105.4 398.91 109.69 395.26 109.69 393.75 106.49 391.27 100.99 389.91 97.79 389.8 97.9 389.8 113.37 385.25 113.37 385.25 87.17 389.5 87.17 392.92 94.66C394.39 97.82 395.67 100.91 397.02 104.07L397.17 104.07 399.28 99.06 401.2 94.66 404.55 87.17 408.92 87.17 408.92 113.37 404.36 113.37Z" fill="#133156"/><path d="M432.41 113.38 430.34 107.58 420.63 107.58 418.52 113.38 413.74 113.38 423.64 87.18 427.33 87.18 437.23 113.38 432.41 113.38ZM427.25 98.4 425.52 93.02 425.41 93.02 423.72 98.29 421.95 103.71 428.99 103.71 427.26 98.4Z" fill="#133156"/><path d="M449.13 91.24 449.13 113.37 444.57 113.37 444.57 91.24 437.31 91.24 437.31 87.17 456.43 87.17 456.43 91.24 449.13 91.24Z" fill="#133156"/><path d="M470.14 86.99C476.16 86.99 479.93 91.21 479.93 96.93L479.93 103.63C479.93 109.77 476.05 113.61 470.14 113.61 463.59 113.61 460.39 108.94 460.39 103.63L460.39 96.93C460.39 91.66 463.59 86.99 470.14 86.99ZM470.14 91.28C466.68 91.28 464.98 93.95 464.98 96.7L464.98 103.74C464.98 106.6 466.67 109.35 470.14 109.35 473.34 109.35 475.3 106.9 475.3 103.74L475.3 96.7C475.3 93.73 473.34 91.28 470.14 91.28Z" fill="#133156"/><path d="M500.95 91.24 493.05 91.24 493.05 98.54C493.05 108.63 491.43 113.26 484.62 113.86 484.35 112.62 484.09 111.37 483.79 110.13 487.55 109.11 488.76 107.01 488.76 100.68L488.76 87.16 505.47 87.16 505.47 113.36 500.95 113.36 500.95 91.23Z" fill="#133156"/><path d="M521.66 86.99C527.68 86.99 531.45 91.21 531.45 96.93L531.45 103.63C531.45 109.77 527.57 113.61 521.66 113.61 515.11 113.61 511.91 108.94 511.91 103.63L511.91 96.93C511.91 91.66 515.11 86.99 521.66 86.99ZM521.66 91.28C518.2 91.28 516.5 93.95 516.5 96.7L516.5 103.74C516.5 106.6 518.19 109.35 521.66 109.35 524.86 109.35 526.82 106.9 526.82 103.74L526.82 96.7C526.82 93.73 524.86 91.28 521.66 91.28Z" fill="#133156"/><path d="M542.3 91.32 542.3 113.38 537.74 113.38 537.74 87.18 555.28 87.18 555.28 91.32 542.3 91.32Z" fill="#133156"/><path d="M573.56 113.38 571.49 107.58 561.78 107.58 559.67 113.38 554.89 113.38 564.79 87.18 568.48 87.18 578.38 113.38 573.56 113.38ZM568.4 98.4 566.67 93.02 566.56 93.02 564.87 98.29 563.1 103.71 570.14 103.71 568.41 98.4Z" fill="#133156"/><path d="M602.53 113.38 602.53 97.83 602.42 97.83 601.03 101.18 599.11 105.4 597.08 109.69 593.43 109.69 591.92 106.49 589.44 100.99 588.09 97.79 587.98 97.9 587.98 113.37 583.42 113.37 583.42 87.17 587.67 87.17 591.1 94.66C592.57 97.82 593.85 100.91 595.2 104.07L595.35 104.07 597.46 99.06 599.38 94.66 602.73 87.17 607.1 87.17 607.1 113.37 602.55 113.37Z" fill="#133156"/><path d="M613.98 113.38 613.98 87.18 618.5 87.18 618.5 105.7C618.5 105.7 618.58 105.74 618.61 105.74L624.71 96.37 630.81 87.18 634.61 87.18 634.61 113.38 630.05 113.38 630.05 95.61 629.94 95.61 624.75 103.63C622.53 106.9 620.42 110.11 618.16 113.38L613.98 113.38Z" fill="#133156"/></g><g><path d="M44.72 140.96C44 140.96 43.31 140.55 42.99 139.85 42.55 138.89 42.97 137.76 43.93 137.32 45.53 136.59 47.85 135.43 50.6 134.05 61.32 128.7 77.56 120.6 84.49 120.74 92.86 120.89 102.63 121.6 112.08 122.3 122.89 123.09 134.07 123.91 143.48 123.92L143.5 123.92C149.45 123.92 154.55 122.19 158.64 118.77 163.45 114.76 168.26 110.75 173.06 106.73L180.27 100.7C182 99.25 183.06 97.41 183.5 95.07 183.85 93.2 183.54 91.47 182.63 90.2 181.8 89.05 180.54 88.32 178.97 88.09 176.11 87.68 173.86 88.23 172.1 89.77 169.37 92.16 166.69 94.75 164.11 97.25L163.57 97.7 151.55 104.85 130.55 103.73C129.5 103.67 128.69 102.78 128.75 101.73 128.81 100.68 129.71 99.86 130.75 99.93L150.59 100.99 161.46 94.51C164.08 91.98 166.79 89.36 169.59 86.9 172.2 84.62 175.54 83.74 179.51 84.31 182.09 84.68 184.3 85.98 185.73 87.97 187.25 90.1 187.79 92.87 187.25 95.77 186.65 98.97 185.12 101.61 182.72 103.62L175.51 109.65C170.7 113.67 165.9 117.69 161.08 121.7 156.28 125.7 150.36 127.73 143.5 127.73L143.48 127.73C133.93 127.73 122.68 126.9 111.8 126.1 102.4 125.41 92.68 124.7 84.42 124.55 84.38 124.55 84.34 124.55 84.3 124.55 78.16 124.55 61.99 132.63 52.3 137.46 49.5 138.86 47.14 140.04 45.51 140.78 45.25 140.9 44.98 140.95 44.72 140.95Z" fill="#FFFFFF"/><path d="M44.19 101.21C47.66 98.84 48.76 98.48 52.64 96.24 54.52 95.16 61.23 90.76 67.14 86.88 72.57 83.32 77.7 79.95 79.4 78.94 82.84 76.89 86.63 76.07 90.66 76.47 99.66 77.38 107.47 78.62 115.03 79.83 122.29 80.99 129.79 82.18 138.37 83.08 139.62 83.21 140.8 83.51 141.94 83.81L142.14 83.86C147.45 85.23 150.16 88.36 150.19 93.15 150.22 98.58 146.6 103.19 141.76 103.88 138.26 104.38 134.69 104.09 131.25 103.81L130.51 103.75C126.39 103.41 122.22 102.95 118.19 102.5 116.43 102.3 114.67 102.11 112.91 101.92 111.86 101.81 111.11 100.87 111.22 99.83 111.33 98.78 112.29 98.03 113.31 98.14 115.08 98.33 116.85 98.52 118.61 98.72 122.61 99.17 126.75 99.63 130.81 99.96L131.55 100.02C134.79 100.29 138.14 100.56 141.21 100.12 144.17 99.7 146.39 96.72 146.37 93.18 146.36 90.95 145.72 88.73 141.18 87.56L140.98 87.51C139.93 87.24 138.93 86.98 137.96 86.88 129.29 85.97 121.73 84.77 114.42 83.6 106.92 82.4 99.16 81.17 90.27 80.27 87.02 79.93 84.11 80.58 81.35 82.23 79.72 83.2 74.62 86.54 69.23 90.08 62.98 94.18 56.52 98.42 54.54 99.56 50.71 101.77 49.85 102.47 46.19 104.47 43.42 105.98 41.66 102.96 44.19 101.23Z" fill="#FFFFFF"/><path d="M162.59 97.98C162.05 97.98 161.5 97.75 161.13 97.3 160.46 96.49 160.56 95.29 161.37 94.62 163.16 93.12 165.4 90.61 165.8 88.44 166.15 86.57 165.84 84.84 164.93 83.57 164.1 82.42 162.84 81.69 161.27 81.46 158.41 81.05 156.16 81.6 154.4 83.14 151.67 85.53 151.62 85.57 149.12 88L148.93 88.19C148.17 88.92 146.97 88.9 146.24 88.15 145.51 87.39 145.53 86.19 146.28 85.46L146.47 85.27C148.99 82.83 149.09 82.74 151.89 80.28 154.5 77.99 157.84 77.13 161.81 77.69 164.39 78.06 166.6 79.36 168.03 81.35 169.55 83.48 170.09 86.25 169.55 89.15 168.8 93.12 164.97 96.58 163.81 97.54 163.45 97.84 163.02 97.98 162.59 97.98Z" fill="#FFFFFF"/><path d="M147.05 88.62C146.75 88.62 146.44 88.55 146.15 88.39 145.22 87.89 144.87 86.74 145.37 85.81 146.22 84.22 146.36 82.76 145.76 81.59 145.17 80.42 143.88 79.62 142.22 79.38 139.36 78.97 137.11 79.52 135.35 81.06 134.17 82.09 133.73 82.45 133.44 82.68 133.07 82.98 132.99 83.04 131.43 84.55 130.67 85.28 129.47 85.26 128.74 84.51 128.01 83.75 128.03 82.55 128.78 81.82 130.41 80.24 130.56 80.12 131.05 79.72 131.32 79.5 131.74 79.16 132.84 78.2 135.45 75.92 138.79 75.04 142.76 75.61 145.67 76.03 148 77.58 149.16 79.87 150.32 82.17 150.17 84.92 148.73 87.61 148.39 88.25 147.73 88.61 147.05 88.61Z" fill="#FFFFFF"/><path d="M122.92 70.94C122.61 70.94 122.31 70.87 122.03 70.72 121.02 70.19 97.34 57.45 93.65 42.06 92.29 36.37 93.41 30.51 96.66 26.39 99.51 22.78 103.63 20.87 108.57 20.87 115.69 20.87 120.53 26.59 122.92 30.32 125.32 26.59 130.15 20.87 137.27 20.87 142.22 20.87 146.34 22.78 149.19 26.39 152.44 30.51 153.56 36.36 152.2 42.06 148.51 57.45 124.83 70.18 123.82 70.72 123.54 70.87 123.23 70.94 122.93 70.94ZM108.57 24.68C104.83 24.68 101.75 26.09 99.65 28.75 97.16 31.91 96.28 36.67 97.36 41.17 100.28 53.35 118.64 64.42 122.93 66.86 127.22 64.42 145.59 53.34 148.5 41.17 149.58 36.67 148.7 31.91 146.21 28.75 144.11 26.09 141.02 24.68 137.28 24.68 129.41 24.68 124.71 34.9 124.66 35.01 124.35 35.69 123.67 36.13 122.92 36.13 122.17 36.13 121.49 35.69 121.18 35.01 121.13 34.91 116.43 24.68 108.56 24.68Z" fill="#FFFFFF"/></g></g></svg>